<?xml version="1.0" encoding="UTF-8" standalone="no"?>
<svg width="148px" height="33px" viewBox="0 0 148 33" version="1.1" xmlns="http://www.w3.org/2000/svg" xmlns:xlink="http://www.w3.org/1999/xlink" xmlns:sketch="http://www.bohemiancoding.com/sketch/ns">
    <!-- Generator: Sketch 3.0.1 (7597) - http://www.bohemiancoding.com/sketch -->
    <title>EdSurgeLogo</title>
    <description>Created with Sketch.</description>
    <defs></defs>
    <g id="Page-1" stroke="none" stroke-width="1" fill="none" fill-rule="evenodd" sketch:type="MSPage">
        <g id="EdSurgeLogo" sketch:type="MSLayerGroup">
            <path d="M33.2647059,31.7630807 C33.2647059,32.4461101 32.7063684,33 32.0172968,33 L1.2471303,33 C0.558337503,33 0,32.4461101 0,31.7630807 L0,1.23719582 C0,0.553889857 0.558337503,0 1.2471303,0 L32.0172968,0 C32.7063684,0 33.2647059,0.553889857 33.2647059,1.23719582 L33.2647059,31.7630807 Z" id="Bolt-Box" fill="#00997A" sketch:type="MSShapeGroup"></path>
            <path d="M3.70000005,29.3846154 L21.6485149,18.8357722 C21.6485149,18.8357722 22.284117,18.4717664 22.284117,18.1350892 C22.284117,17.7986938 22.0438492,17.6589516 22.0438492,17.6589516 L19.5159253,15.3751814 C19.5159253,15.3751814 19.3466587,15.1720482 19.3466587,14.9762401 C19.3466587,14.7801503 19.5514259,14.4584052 19.5514259,14.4584052 L29.2882353,4 L11.3394365,14.5488432 C11.3394365,14.5488432 10.7044024,14.912849 10.7044024,15.2492444 C10.7044024,15.5859216 10.9441022,15.7256638 10.9441022,15.7256638 L13.4723101,18.009434 C13.4723101,18.009434 13.6418607,18.2125672 13.6418607,18.4083753 C13.6418607,18.6041834 13.4368095,18.9264919 13.4368095,18.9264919 L3.70000005,29.3846154 Z" id="Bolt" fill="#FFFFFF" sketch:type="MSShapeGroup"></path>
            <path d="M45.44,19.996 L45.44,19.196 L54.112,19.196 L54.112,15.868 C54.112,12.508 52.992,9.596 48,9.596 C43.008,9.596 41.536,12.38 41.536,15.676 L41.536,19.804 C41.536,23.548 43.232,25.82 48.128,25.82 C49.984,25.82 52.096,25.5 53.856,24.828 L53.248,21.884 C51.552,22.396 49.984,22.62 48.48,22.62 C46.112,22.62 45.44,21.884 45.44,19.996 Z M45.44,15.292 C45.44,13.82 46.112,12.796 48.032,12.796 C49.952,12.796 50.4,13.82 50.4,15.292 L50.4,16.06 L45.44,16.06 L45.44,15.292 Z M56.992,20.412 C56.992,23.964 58.656,25.82 61.792,25.82 C63.744,25.82 65.344,25.18 66.72,24.188 L67.104,25.5 L70.208,25.5 L70.208,3.004 L66.304,3.548 L66.304,10.044 C65.088,9.788 63.52,9.596 62.144,9.596 C58.528,9.596 56.992,11.644 56.992,15.1 L56.992,20.412 Z M66.304,21.084 C65.472,21.852 64.096,22.492 62.816,22.492 C61.376,22.492 60.896,21.788 60.896,20.508 L60.896,15.004 C60.896,13.596 61.44,12.924 62.848,12.924 C63.968,12.924 65.28,13.116 66.304,13.34 L66.304,21.084 Z M88.128,19.708 C88.128,15.452 87.84,14.524 82.112,13.148 C78.432,12.252 78.368,12.188 78.368,9.756 C78.368,7.9 78.848,7.324 81.568,7.324 C83.424,7.324 85.504,7.58 87.264,7.964 L87.712,4.572 C85.6,4.092 83.36,3.868 81.504,3.868 C76.096,3.868 74.336,5.788 74.336,9.66 C74.336,14.172 75.04,15.164 80.192,16.316 C84.032,17.148 84.096,17.34 84.096,19.708 C84.096,21.756 83.616,22.364 80.704,22.364 C78.592,22.364 76.672,21.98 74.688,21.372 L73.984,24.54 C75.392,25.212 78.208,25.82 80.64,25.82 C86.944,25.82 88.128,23.74 88.128,19.708 Z M91.808,9.916 L91.808,21.212 C91.808,23.996 92.736,25.82 95.328,25.82 C97.152,25.82 99.616,25.148 101.568,24.188 L101.952,25.5 L104.928,25.5 L104.928,9.916 L101.024,9.916 L101.024,20.732 C99.616,21.468 97.92,22.044 96.96,22.044 C96.064,22.044 95.712,21.628 95.712,20.796 L95.712,9.916 L91.808,9.916 Z M117.056,9.596 C115.68,9.98 113.824,11.068 112.96,11.644 L112.704,9.916 L109.408,9.916 L109.408,25.5 L113.312,25.5 L113.312,15.452 C114.72,14.556 115.936,13.852 117.44,13.18 L117.056,9.596 Z M125.376,21.34 C129.728,21.34 131.648,19.42 131.648,16.252 L131.648,14.78 C131.648,13.884 131.456,13.02 131.104,12.348 C131.648,12.188 132.288,12.028 132.832,11.868 L132.832,9.916 L128.032,9.916 C127.264,9.724 126.432,9.596 125.376,9.596 C120.864,9.596 119.168,11.548 119.104,14.78 L119.104,16.252 C119.104,18.14 119.776,19.58 121.216,20.444 C120.448,20.988 119.584,21.82 119.584,23.1 C119.584,25.084 120.448,25.82 122.656,26.076 C124.64,26.3 125.376,26.396 127.168,26.588 C128.352,26.716 128.64,26.876 128.64,27.836 C128.64,28.86 128.032,29.084 124.928,29.084 C123.104,29.084 121.344,28.828 119.68,28.412 L119.2,31.324 C120.96,31.868 123.424,32.124 125.216,32.124 C131.04,32.124 132.256,30.812 132.256,27.484 C132.256,25.244 131.456,23.996 128.928,23.708 C127.104,23.516 126.144,23.42 124.416,23.228 C123.808,23.164 123.552,22.972 123.552,22.556 C123.552,22.076 123.968,21.628 124.48,21.308 C124.768,21.34 125.056,21.34 125.376,21.34 Z M128,14.908 L128,16.092 C128,17.596 127.232,18.204 125.376,18.204 C123.552,18.204 122.784,17.628 122.784,16.092 L122.784,14.908 C122.784,13.436 123.456,12.732 125.376,12.732 C127.328,12.732 128,13.436 128,14.908 Z M138.912,19.996 L138.912,19.196 L147.584,19.196 L147.584,15.868 C147.584,12.508 146.464,9.596 141.472,9.596 C136.48,9.596 135.008,12.38 135.008,15.676 L135.008,19.804 C135.008,23.548 136.704,25.82 141.6,25.82 C143.456,25.82 145.568,25.5 147.328,24.828 L146.72,21.884 C145.024,22.396 143.456,22.62 141.952,22.62 C139.584,22.62 138.912,21.884 138.912,19.996 Z M138.912,15.292 C138.912,13.82 139.584,12.796 141.504,12.796 C143.424,12.796 143.872,13.82 143.872,15.292 L143.872,16.06 L138.912,16.06 L138.912,15.292 Z" id="edSurge" fill="#00997A" sketch:type="MSShapeGroup"></path>
        </g>
    </g>
</svg>